<svg xmlns="http://www.w3.org/2000/svg" width="70" height="71" viewBox="0 0 70 71" fill="none">
  <path d="M35 70.4536C54.33 70.4536 70 54.7836 70 35.4536C70 16.1236 54.33 0.453613 35 0.453613C15.67 0.453613 0 16.1236 0 35.4536C0 54.7836 15.67 70.4536 35 70.4536Z" fill="#00E5A8"/>
  <path d="M45.3253 21.1499H41.9825C38.6854 21.1499 37.6575 23.1944 37.6575 25.2922V30.2873H45.0169L43.8404 37.9551H37.6575V56.5002C34.909 56.9316 32.11 56.9316 29.3615 56.5002V37.9398H22.6265V30.2873H29.3615V24.4241C29.3615 17.7729 33.3248 14.0989 39.386 14.0989C41.3757 14.1264 43.3608 14.2995 45.3253 14.6167V21.1499Z" fill="black"/>
</svg> 