<svg xmlns="http://www.w3.org/2000/svg" width="70" height="70" viewBox="0 0 70 70" fill="none">
  <path d="M35 70C54.33 70 70 54.33 70 35C70 15.67 54.33 0 35 0C15.67 0 0 15.67 0 35C0 54.33 15.67 70 35 70Z" fill="#00E5A8"/>
  <path d="M34.9963 16.5996C40.9889 16.5996 41.7008 16.6224 44.069 16.729C45.4908 16.7417 46.8998 16.9992 48.2341 17.4905C49.2023 17.8638 50.0816 18.4358 50.8153 19.1695C51.5491 19.9033 52.1211 20.7826 52.4944 21.7508C52.9861 23.085 53.2437 24.4941 53.2558 25.9159C53.3624 28.284 53.3853 28.9922 53.3853 34.9848C53.3853 40.9774 53.3624 41.6893 53.2558 44.0536C53.2457 45.4831 52.9881 46.9 52.4944 48.2416C52.1211 49.2098 51.5491 50.0891 50.8153 50.8228C50.0816 51.5566 49.2023 52.1286 48.2341 52.5019C46.8998 52.9931 45.4908 53.2507 44.069 53.2634C41.7008 53.37 40.9927 53.3928 34.9963 53.3928C28.9999 53.3928 28.2955 53.37 25.9274 53.2634C24.5056 53.2507 23.0966 52.9931 21.7623 52.5019C20.7941 52.1286 19.9148 51.5566 19.1811 50.8228C18.4473 50.0891 17.8753 49.2098 17.502 48.2416C17.0083 46.9 16.7507 45.4831 16.7406 44.0536C16.634 41.6893 16.6111 40.9774 16.6111 34.9848C16.6111 28.9922 16.634 28.284 16.7406 25.9159C16.7527 24.4941 17.0103 23.085 17.502 21.7508C17.8753 20.7826 18.4473 19.9033 19.1811 19.1695C19.9148 18.4358 20.7941 17.8638 21.7623 17.4905C23.0966 16.9992 24.5056 16.7417 25.9274 16.729C28.2955 16.6224 29.0037 16.5996 34.9963 16.5996ZM34.9963 12.5525C28.9047 12.5525 28.1433 12.5791 25.7447 12.6896C23.8828 12.7272 22.0407 13.0799 20.2965 13.7327C18.8059 14.3097 17.4521 15.1915 16.3219 16.3218C15.1916 17.452 14.3098 18.8058 13.7328 20.2964C13.0797 22.0405 12.7269 23.8826 12.6897 25.7446C12.5792 28.1393 12.5564 28.9008 12.5564 34.9962C12.5564 41.0916 12.5792 41.8492 12.6897 44.2516C12.7273 46.1135 13.08 47.9556 13.7328 49.6998C14.3098 51.1904 15.1916 52.5442 16.3219 53.6744C17.4521 54.8047 18.8059 55.6865 20.2965 56.2635C22.0431 56.9171 23.8878 57.2699 25.7523 57.3067C28.1471 57.4171 28.9123 57.4399 35.0039 57.4399C41.0955 57.4399 41.8569 57.4171 44.2593 57.3067C46.1212 57.269 47.9634 56.9163 49.7075 56.2635C51.1981 55.6865 52.5519 54.8047 53.6821 53.6744C54.8124 52.5442 55.6942 51.1904 56.2712 49.6998C56.924 47.9556 57.2767 46.1135 57.3144 44.2516C57.4248 41.8568 57.4476 41.0916 57.4476 34.9962C57.4476 28.9008 57.4248 28.1432 57.3144 25.7446C57.2771 23.8826 56.9244 22.0405 56.2712 20.2964C55.6934 18.805 54.8104 17.4508 53.6788 16.3205C52.5472 15.1902 51.1919 14.3088 49.6999 13.7327C47.9557 13.0799 46.1136 12.7272 44.2517 12.6896C41.857 12.5791 41.0917 12.5525 34.9963 12.5525ZM34.9963 23.4717C32.716 23.4717 30.487 24.1479 28.5911 25.4148C26.6952 26.6817 25.2176 28.4824 24.3451 30.5892C23.4727 32.6959 23.2446 35.0141 23.6898 37.2505C24.1349 39.4869 25.2332 41.541 26.8459 43.1531C28.4585 44.7652 30.513 45.8629 32.7496 46.3073C34.9861 46.7517 37.3042 46.5228 39.4106 45.6497C41.5171 44.7766 43.3173 43.2984 44.5836 41.402C45.8499 39.5057 46.5254 37.2764 46.5246 34.9962C46.5236 31.9394 45.3086 29.0081 43.1467 26.8469C40.9848 24.6857 38.0531 23.4717 34.9963 23.4717ZM34.9963 42.4774C33.5166 42.4774 32.0702 42.0387 30.8399 41.2166C29.6097 40.3946 28.6508 39.2262 28.0845 37.8591C27.5183 36.4921 27.3701 34.9879 27.6588 33.5367C27.9475 32.0855 28.66 30.7524 29.7063 29.7062C30.7525 28.6599 32.0856 27.9474 33.5368 27.6587C34.988 27.37 36.4922 27.5182 37.8592 28.0844C39.2263 28.6507 40.3947 29.6096 41.2167 30.8398C42.0388 32.0701 42.4775 33.5165 42.4775 34.9962C42.4775 36.9803 41.6893 38.8832 40.2863 40.2862C38.8833 41.6892 36.9804 42.4774 34.9963 42.4774ZM46.9777 20.3231C46.4444 20.3231 45.9231 20.4813 45.4797 20.7776C45.0364 21.074 44.6909 21.4952 44.487 21.988C44.2831 22.4807 44.2299 23.0229 44.3342 23.5459C44.4386 24.0689 44.6957 24.5492 45.073 24.926C45.4504 25.3028 45.931 25.5592 46.4542 25.6628C46.9773 25.7664 47.5194 25.7125 48.0119 25.5079C48.5043 25.3033 48.9251 24.9572 49.2208 24.5134C49.5165 24.0696 49.674 23.5481 49.6732 23.0148C49.6722 22.3006 49.3878 21.6159 48.8824 21.1112C48.377 20.6065 47.6919 20.3231 46.9777 20.3231Z" fill="black"/>
</svg> 