<svg xmlns="http://www.w3.org/2000/svg" width="70" height="71" viewBox="0 0 70 71" fill="none">
  <path d="M35 70.45C54.33 70.45 70 54.7799 70 35.45C70 16.12 54.33 0.449951 35 0.449951C15.67 0.449951 0 16.12 0 35.45C0 54.7799 15.67 70.45 35 70.45Z" fill="#00E5A8"/>
  <path d="M46.0867 22.756C44.2402 21.3892 42.999 19.4132 42.4165 16.771H36.9379V18.6937C36.9379 27.279 36.9645 35.8605 36.9188 44.4459C36.9188 47.979 34.1738 50.4613 30.6331 50.3281C29.753 50.285 28.8947 50.0397 28.1248 49.6111C27.3549 49.1826 26.6942 48.5824 26.1938 47.8572C25.3242 47.3053 24.6138 46.5358 24.133 45.625C23.6522 44.7141 23.4176 43.6934 23.4526 42.6641C23.5783 39.3213 26.3766 36.8923 29.883 37.0826C30.2638 37.0826 30.6064 37.0826 30.9757 37.0826V31.6649C23.3612 31.5088 17.0793 38.5903 18.1948 46.1667C18.5998 48.7402 19.7455 51.14 21.4919 53.0731C23.8067 54.9539 26.6659 56.0427 29.5214 55.8524C37.0407 55.3612 42.2261 50.073 42.2604 42.8316C42.2832 38.5408 42.2604 34.2501 42.2604 29.9555C42.2604 29.6052 42.3213 29.255 42.3632 28.7714C45.3823 30.7017 48.4548 31.8553 51.9422 31.6992V24.9528C49.5779 24.6177 47.6248 23.8944 46.0867 22.756Z" fill="black"/>
</svg> 