<svg xmlns="http://www.w3.org/2000/svg" width="70" height="71" viewBox="0 0 70 71" fill="none">
  <path d="M35 70.4536C54.33 70.4536 70 54.7836 70 35.4536C70 16.1236 54.33 0.453613 35 0.453613C15.67 0.453613 0 16.1236 0 35.4536C0 54.7836 15.67 70.4536 35 70.4536Z" fill="#00E5A8"/>
  <path d="M54.9538 27.1499C54.9538 27.1499 54.5541 24.3439 53.3319 23.1104C51.7824 21.4885 50.0501 21.4771 49.2544 21.3857C43.5435 20.9707 35.0077 20.9707 35.0077 20.9707H34.9886C34.9886 20.9707 26.4414 20.9707 20.7419 21.3857C19.9462 21.4771 18.2101 21.4885 16.6644 23.1104C15.4422 24.3439 15.0463 27.1499 15.0463 27.1499C14.7928 29.3378 14.6568 31.5377 14.6389 33.7402V36.8317C14.6568 39.0342 14.7928 41.2341 15.0463 43.422C15.0463 43.422 15.427 46.228 16.6644 47.4615C18.2101 49.0834 20.247 49.0339 21.1531 49.2014C24.4121 49.5136 34.9963 49.6126 34.9963 49.6126C34.9963 49.6126 43.5549 49.6126 49.2544 49.1862C50.0501 49.091 51.7824 49.0834 53.3319 47.4615C54.5541 46.228 54.9538 43.422 54.9538 43.422C55.205 41.2339 55.3397 39.0341 55.3574 36.8317V33.7402C55.3397 31.5378 55.205 29.3379 54.9538 27.1499ZM30.7931 40.5742V29.1525L41.796 34.8938L30.7931 40.5742Z" fill="black"/>
</svg>