<svg xmlns="http://www.w3.org/2000/svg" width="41" height="41" viewBox="0 0 41 41" fill="none">
  <path d="M20.4832 3.41675C11.0532 3.41675 3.41699 11.0701 3.41699 20.5001C3.41699 29.9301 11.0532 37.5834 20.4832 37.5834C29.9303 37.5834 37.5837 29.9301 37.5837 20.5001C37.5837 11.0701 29.9303 3.41675 20.4832 3.41675ZM33.2616 15.6484L24.7028 14.9138L21.2862 6.86758C26.7699 7.19216 31.3824 10.7455 33.2616 15.6484ZM24.6003 26.3426L20.5003 23.8826L16.4174 26.3426L17.4937 21.6959L13.8891 18.5697L18.6382 18.1597L20.5003 13.7692L22.3624 18.1426L27.1116 18.5526L23.507 21.6788L24.6003 26.3426ZM19.7145 6.86758L16.2978 14.9309L7.72199 15.6655C9.60116 10.7455 14.2137 7.17508 19.7145 6.86758ZM6.83366 20.5001C6.83366 19.4067 6.97033 18.3476 7.22658 17.3226L13.7012 22.9259L11.8049 31.0405C8.76408 28.5292 6.83366 24.7367 6.83366 20.5001ZM13.3937 32.1509L20.5003 27.863L27.607 32.1338C25.5228 33.4151 23.097 34.1667 20.4832 34.1667C17.8866 34.1667 15.4607 33.4151 13.3937 32.1509ZM29.1957 31.0405L27.2995 22.9259L33.7741 17.3226C34.0132 18.3305 34.167 19.4067 34.167 20.5001C34.167 24.7367 32.2195 28.5292 29.1957 31.0405Z" fill="#00E5A8"/>
</svg> 