<svg xmlns="http://www.w3.org/2000/svg" width="40" height="40" viewBox="0 0 40 40" fill="none">
<path d="M16.1337 21.9833L20.0003 19.05L23.8503 21.9833L22.3837 17.2333L26.2503 14.1667H21.517L20.0003 9.48333L18.4837 14.1667H13.7503L17.6003 17.2333L16.1337 21.9833ZM33.3337 15.8333C33.3337 8.46667 27.367 2.5 20.0003 2.5C12.6337 2.5 6.66699 8.46667 6.66699 15.8333C6.66699 19.2167 7.93366 22.2833 10.0003 24.6333V37.5L20.0003 34.1667L30.0003 37.5V24.6333C32.067 22.2833 33.3337 19.2167 33.3337 15.8333ZM20.0003 5.83333C25.517 5.83333 30.0003 10.3167 30.0003 15.8333C30.0003 21.35 25.517 25.8333 20.0003 25.8333C14.4837 25.8333 10.0003 21.35 10.0003 15.8333C10.0003 10.3167 14.4837 5.83333 20.0003 5.83333ZM20.0003 30.8333L13.3337 32.5333V27.3667C15.3003 28.5 17.567 29.1667 20.0003 29.1667C22.4337 29.1667 24.7003 28.5 26.667 27.3667V32.5333L20.0003 30.8333Z" fill="#B4B4B4"/>
</svg> 