<svg xmlns="http://www.w3.org/2000/svg" width="45" height="46" viewBox="0 0 45 46" fill="none">
  <path d="M41.25 10.4056L19.8563 31.8181L11.9062 23.8681L14.55 21.2244L19.8563 26.5306L38.6063 7.78062L41.25 10.4056ZM37.1063 19.8556C37.35 20.9244 37.5 22.0494 37.5 23.1931C37.5 31.4806 30.7875 38.1931 22.5 38.1931C14.2125 38.1931 7.5 31.4806 7.5 23.1931C7.5 14.9056 14.2125 8.19312 22.5 8.19312C25.4625 8.19312 28.2 9.05562 30.525 10.5369L33.225 7.83687C30.1875 5.69937 26.4937 4.44312 22.5 4.44312C12.15 4.44312 3.75 12.8431 3.75 23.1931C3.75 33.5431 12.15 41.9431 22.5 41.9431C32.85 41.9431 41.25 33.5431 41.25 23.1931C41.25 20.9619 40.8375 18.8244 40.125 16.8369L37.1063 19.8556Z" fill="#00E5A8"/>
</svg> 