<svg xmlns="http://www.w3.org/2000/svg" width="45" height="45" viewBox="0 0 45 45" fill="none">
  <path d="M29.4937 5.625H15.5063L5.625 15.5063V29.4937L15.5063 39.375H29.4937L39.375 29.4937V15.5063L29.4937 5.625ZM35.625 27.9375L27.9375 35.625H17.0625L9.375 27.9375V17.0625L17.0625 9.375H27.9375L35.625 17.0625V27.9375Z" fill="black"/>
  <path d="M22.5 31.875C23.5355 31.875 24.375 31.0355 24.375 30C24.375 28.9645 23.5355 28.125 22.5 28.125C21.4645 28.125 20.625 28.9645 20.625 30C20.625 31.0355 21.4645 31.875 22.5 31.875Z" fill="black"/>
  <path d="M20.625 13.125H24.375V26.25H20.625V13.125Z" fill="black"/>
</svg> 